<svg width="417" height="166" viewBox="0 0 417 166" fill="none" xmlns="http://www.w3.org/2000/svg">
<path d="M2.4043 58.4854C2.18945 58.0199 2.08203 57.5902 2.08203 57.1963C2.08203 56.5518 2.33268 56.0146 2.83398 55.585C3.37109 55.1195 3.8903 54.8867 4.3916 54.8867C5.17936 54.8867 5.93132 55.4059 6.64746 56.4443C7.36361 58.0199 8.34831 59.4521 9.60156 60.7412C10.8906 62.0303 12.3587 63.1403 14.0059 64.0713C15.653 65.0023 17.4434 65.7184 19.377 66.2197C21.3105 66.721 23.2799 66.9717 25.2852 66.9717C27.3978 66.9717 29.5104 66.6315 31.623 65.9512C33.7357 65.2708 35.6335 64.2682 37.3164 62.9434C39.0352 61.5827 40.4137 59.9176 41.4521 57.9482C42.5264 55.943 43.0635 53.6156 43.0635 50.9658C43.0635 48.71 42.5264 46.7764 41.4521 45.165C40.4137 43.5537 39.0173 42.1751 37.2627 41.0293C35.5439 39.8477 33.5745 38.8271 31.3545 37.9678C29.1344 37.1084 26.8786 36.2848 24.5869 35.4971C22.3311 34.9242 20.0036 34.1901 17.6045 33.2949C15.2054 32.3639 13.0212 31.2002 11.0518 29.8037C9.08236 28.4072 7.45312 26.7243 6.16406 24.7549C4.91081 22.7497 4.28418 20.3685 4.28418 17.6113C4.28418 14.8184 4.91081 12.3298 6.16406 10.1455C7.41732 7.96126 9.02865 6.13509 10.998 4.66699C12.9674 3.16309 15.1696 2.01725 17.6045 1.22949C20.0752 0.441732 22.528 0.0478516 24.9629 0.0478516C27.1113 0.0478516 29.1523 0.262695 31.0859 0.692383C33.0553 1.12207 34.8815 1.7666 36.5645 2.62598C38.2832 3.48535 39.8229 4.55957 41.1836 5.84863C42.5801 7.10189 43.7617 8.55208 44.7285 10.1992C44.9076 10.4857 44.9971 10.8258 44.9971 11.2197C44.9971 11.7926 44.7822 12.2939 44.3525 12.7236C43.9229 13.1175 43.4036 13.3145 42.7949 13.3145C42.222 13.3145 41.6849 13.1175 41.1836 12.7236C38.9993 9.75163 36.5286 7.69271 33.7715 6.54688C31.0501 5.36523 28.1318 4.77441 25.0166 4.77441C23.262 4.77441 21.4538 5.04297 19.5918 5.58008C17.7298 6.08138 16.029 6.86914 14.4893 7.94336C12.9495 8.98177 11.6605 10.3066 10.6221 11.918C9.61947 13.5293 9.10026 15.4271 9.06445 17.6113C9.06445 19.7956 9.63737 21.6396 10.7832 23.1436C11.9648 24.6117 13.415 25.847 15.1338 26.8496C16.8525 27.8522 18.6787 28.6758 20.6123 29.3203C22.5817 29.929 24.3363 30.4482 25.876 30.8779C28.6689 31.8447 31.3724 32.8831 33.9863 33.9932C36.6361 35.0674 38.9814 36.3743 41.0225 37.9141C43.0635 39.418 44.6927 41.2262 45.9102 43.3389C47.1634 45.4157 47.79 47.9222 47.79 50.8584C47.79 54.0811 47.1455 56.9814 45.8564 59.5596C44.6032 62.1019 42.9202 64.2861 40.8076 66.1123C38.7308 67.9027 36.3138 69.2812 33.5566 70.248C30.7995 71.2148 27.9528 71.6982 25.0166 71.6982C22.4743 71.6982 20.0036 71.3581 17.6045 70.6777C15.2412 69.9974 13.057 69.0664 11.0518 67.8848C9.08236 66.7031 7.3457 65.3066 5.8418 63.6953C4.33789 62.084 3.19206 60.3473 2.4043 58.4854ZM59.0693 45.4873C59.0693 48.3877 59.6243 51.1449 60.7344 53.7588C61.8444 56.3369 63.3662 58.6107 65.2998 60.5801C67.2334 62.5137 69.4893 64.0534 72.0674 65.1992C74.6813 66.3451 77.4922 66.918 80.5 66.918C83.5436 66.918 86.3724 66.3451 88.9863 65.1992C91.6003 64.0534 93.8561 62.5137 95.7539 60.5801C97.6875 58.6107 99.1914 56.3369 100.266 53.7588C101.376 51.1449 101.931 48.3877 101.931 45.4873C101.931 42.5153 101.376 39.7223 100.266 37.1084C99.1914 34.4945 97.6875 32.2207 95.7539 30.2871C93.8203 28.3535 91.5465 26.8317 88.9326 25.7217C86.3187 24.5758 83.5078 24.0029 80.5 24.0029C77.528 24.0029 74.735 24.5758 72.1211 25.7217C69.5072 26.8317 67.2334 28.3535 65.2998 30.2871C63.3662 32.2207 61.8444 34.4945 60.7344 37.1084C59.6243 39.7223 59.0693 42.5153 59.0693 45.4873ZM54.2891 45.4873C54.2891 41.835 54.9694 38.4154 56.3301 35.2285C57.7266 32.0059 59.6064 29.2129 61.9697 26.8496C64.3688 24.4863 67.1439 22.6243 70.2949 21.2637C73.4818 19.8672 76.8835 19.1689 80.5 19.1689C84.1523 19.1689 87.5719 19.8672 90.7588 21.2637C93.9456 22.6243 96.7207 24.5042 99.084 26.9033C101.447 29.2666 103.309 32.0417 104.67 35.2285C106.031 38.4154 106.711 41.835 106.711 45.4873C106.711 49.1038 106.031 52.5055 104.67 55.6924C103.309 58.8434 101.447 61.6006 99.084 63.9639C96.7207 66.3271 93.9456 68.207 90.7588 69.6035C87.5719 70.9642 84.1523 71.6445 80.5 71.6445C76.8835 71.6445 73.4818 70.9642 70.2949 69.6035C67.1439 68.207 64.3688 66.3271 61.9697 63.9639C59.6064 61.6006 57.7266 58.8434 56.3301 55.6924C54.9694 52.5055 54.2891 49.1038 54.2891 45.4873ZM113.962 21.5859C113.962 20.8698 114.195 20.2969 114.66 19.8672C115.126 19.4017 115.681 19.1689 116.325 19.1689C117.006 19.1689 117.561 19.4017 117.99 19.8672C118.456 20.2969 118.688 20.8698 118.688 21.5859V46.6152C118.688 49.3724 119.19 51.9863 120.192 54.457C121.195 56.8919 122.556 59.0404 124.274 60.9023C126.029 62.7285 128.088 64.1787 130.451 65.2529C132.85 66.3271 135.446 66.8643 138.239 66.8643C141.032 66.8643 143.575 66.3271 145.866 65.2529C148.158 64.1787 150.127 62.7285 151.774 60.9023C153.457 59.0404 154.746 56.874 155.642 54.4033C156.573 51.9326 157.038 49.3187 157.038 46.5615V21.5859C157.038 20.8698 157.271 20.279 157.736 19.8135C158.202 19.348 158.757 19.1152 159.401 19.1152C160.118 19.1152 160.69 19.348 161.12 19.8135C161.586 20.279 161.818 20.8698 161.818 21.5859V46.6152C161.818 50.0885 161.228 53.347 160.046 56.3906C158.9 59.4342 157.289 62.084 155.212 64.3398C153.135 66.5957 150.646 68.3861 147.746 69.7109C144.846 71 141.677 71.6445 138.239 71.6445C134.766 71.6445 131.543 71 128.571 69.7109C125.635 68.3861 123.075 66.5957 120.891 64.3398C118.742 62.084 117.041 59.4342 115.788 56.3906C114.571 53.347 113.962 50.0885 113.962 46.6152V46.5078V21.5859ZM171.433 46.5078C171.433 42.7839 172.131 39.2747 173.527 35.9805C174.96 32.6504 176.893 29.75 179.328 27.2793C181.799 24.7728 184.681 22.8034 187.976 21.3711C191.27 19.903 194.779 19.1689 198.503 19.1689C198.539 19.1689 198.575 19.1868 198.61 19.2227C198.646 19.2227 198.682 19.2227 198.718 19.2227C198.754 19.1868 198.861 19.1689 199.04 19.1689C199.828 19.1689 200.437 19.4017 200.866 19.8672C201.296 20.2969 201.511 20.8698 201.511 21.5859C201.511 22.2663 201.278 22.8392 200.812 23.3047C200.347 23.7344 199.756 23.9492 199.04 23.9492H198.503C195.495 23.9492 192.631 24.54 189.909 25.7217C187.224 26.9033 184.86 28.5146 182.819 30.5557C180.778 32.5967 179.149 34.9958 177.932 37.7529C176.75 40.4743 176.159 43.3926 176.159 46.5078V68.583C176.159 69.2992 175.944 69.89 175.515 70.3555C175.085 70.7852 174.566 71 173.957 71C173.241 71 172.632 70.7852 172.131 70.3555C171.665 69.89 171.433 69.2992 171.433 68.583V46.5078ZM207.473 7.72852C207.473 6.79753 207.777 6.02767 208.386 5.41895C208.994 4.81022 209.764 4.50586 210.695 4.50586C211.59 4.50586 212.342 4.81022 212.951 5.41895C213.56 6.02767 213.864 6.79753 213.864 7.72852C213.864 8.58789 213.56 9.33984 212.951 9.98438C212.342 10.5931 211.59 10.8975 210.695 10.8975C209.764 10.8975 208.994 10.5931 208.386 9.98438C207.777 9.33984 207.473 8.58789 207.473 7.72852ZM208.225 21.6396C208.225 20.9235 208.457 20.3327 208.923 19.8672C209.388 19.4017 209.961 19.1689 210.642 19.1689C211.358 19.1689 211.931 19.4017 212.36 19.8672C212.79 20.3327 213.005 20.9235 213.005 21.6396V68.7441C213.005 69.4245 212.772 69.9974 212.307 70.4629C211.877 70.9284 211.34 71.1611 210.695 71.1611C210.015 71.1611 209.424 70.9284 208.923 70.4629C208.457 69.9974 208.225 69.4245 208.225 68.7441V21.6396ZM226.11 47.6895C226.325 50.375 227.023 52.8994 228.205 55.2627C229.387 57.626 230.909 59.6849 232.771 61.4395C234.668 63.194 236.835 64.5726 239.27 65.5752C241.74 66.5778 244.354 67.0791 247.111 67.0791C248.293 67.0791 249.349 67.0433 250.28 66.9717C251.247 66.8643 252.142 66.7031 252.966 66.4883C253.789 66.2376 254.595 65.9333 255.383 65.5752C256.206 65.2171 257.084 64.7695 258.015 64.2324C258.588 63.946 259.125 63.8027 259.626 63.8027C260.271 63.8027 260.79 64.0713 261.184 64.6084C261.613 65.1455 261.828 65.7184 261.828 66.3271C261.828 66.6494 261.739 66.9896 261.56 67.3477C261.381 67.7057 261.094 68.0101 260.7 68.2607C259.698 68.8695 258.713 69.3887 257.746 69.8184C256.779 70.2122 255.759 70.5524 254.685 70.8389C253.646 71.1253 252.5 71.3223 251.247 71.4297C250.03 71.5729 248.651 71.6445 247.111 71.6445C243.495 71.6445 240.093 70.9642 236.906 69.6035C233.719 68.207 230.944 66.3271 228.581 63.9639C226.218 61.6006 224.338 58.8255 222.941 55.6387C221.581 52.4518 220.9 49.0501 220.9 45.4336C220.9 41.8171 221.581 38.4154 222.941 35.2285C224.338 32.0417 226.218 29.2666 228.581 26.9033C230.944 24.5042 233.719 22.6243 236.906 21.2637C240.093 19.8672 243.495 19.1689 247.111 19.1689C250.692 19.1689 254.076 19.8672 257.263 21.2637C260.485 22.6243 263.278 24.4863 265.642 26.8496C268.041 29.2129 269.938 31.988 271.335 35.1748C272.731 38.3617 273.43 41.7454 273.43 45.3262C273.43 45.9707 273.215 46.5257 272.785 46.9912C272.391 47.4567 271.836 47.6895 271.12 47.6895H226.11ZM268.542 43.6074C268.363 40.8503 267.683 38.2721 266.501 35.873C265.319 33.4382 263.762 31.3255 261.828 29.5352C259.895 27.7448 257.674 26.3483 255.168 25.3457C252.661 24.3073 249.994 23.7881 247.165 23.7881C244.3 23.7881 241.615 24.3073 239.108 25.3457C236.638 26.3841 234.453 27.7985 232.556 29.5889C230.694 31.3792 229.172 33.4919 227.99 35.9268C226.844 38.3258 226.182 40.8861 226.003 43.6074H268.542ZM323.327 19.1689C323.936 19.1689 324.473 19.4196 324.938 19.9209C325.404 20.3864 325.637 20.9235 325.637 21.5322C325.637 21.8545 325.565 22.1768 325.422 22.499C325.314 22.7855 325.207 22.9824 325.1 23.0898L285.461 66.3809H324.777C325.493 66.3809 326.084 66.5957 326.55 67.0254C327.015 67.4193 327.248 67.9564 327.248 68.6367C327.248 69.3171 327.015 69.89 326.55 70.3555C326.084 70.7852 325.493 71 324.777 71H280.627C279.911 71 279.32 70.7493 278.854 70.248C278.389 69.7467 278.156 69.1917 278.156 68.583C278.156 68.0817 278.407 67.5446 278.908 66.9717L318.386 23.8955H281.701C281.021 23.8955 280.448 23.6628 279.982 23.1973C279.517 22.7318 279.284 22.1768 279.284 21.5322C279.284 20.8519 279.517 20.2969 279.982 19.8672C280.448 19.4017 281.021 19.1689 281.701 19.1689H323.327ZM336.057 64.3398C336.057 63.6237 336.289 63.0329 336.755 62.5674C337.22 62.1019 337.793 61.8691 338.474 61.8691C339.19 61.8691 339.763 62.1019 340.192 62.5674C340.622 63.0329 340.837 63.6237 340.837 64.3398V83.1924C340.837 83.9085 340.622 84.4993 340.192 84.9648C339.763 85.4303 339.19 85.6631 338.474 85.6631C337.793 85.6631 337.22 85.4303 336.755 84.9648C336.289 84.4993 336.057 83.9085 336.057 83.1924V64.3398ZM5.14355 139.487C5.14355 142.388 5.69857 145.145 6.80859 147.759C7.91862 150.337 9.44043 152.611 11.374 154.58C13.3076 156.514 15.5635 158.053 18.1416 159.199C20.7555 160.345 23.5664 160.918 26.5742 160.918C29.6178 160.918 32.4466 160.345 35.0605 159.199C37.6745 158.053 39.9303 156.514 41.8281 154.58C43.7617 152.611 45.2656 150.337 46.3398 147.759C47.4499 145.145 48.0049 142.388 48.0049 139.487C48.0049 136.515 47.4499 133.722 46.3398 131.108C45.2656 128.494 43.7617 126.221 41.8281 124.287C39.8945 122.354 37.6208 120.832 35.0068 119.722C32.3929 118.576 29.582 118.003 26.5742 118.003C23.6022 118.003 20.8092 118.576 18.1953 119.722C15.5814 120.832 13.3076 122.354 11.374 124.287C9.44043 126.221 7.91862 128.494 6.80859 131.108C5.69857 133.722 5.14355 136.515 5.14355 139.487ZM0.363281 139.487C0.363281 135.835 1.04362 132.415 2.4043 129.229C3.80078 126.006 5.68066 123.213 8.04395 120.85C10.443 118.486 13.2181 116.624 16.3691 115.264C19.556 113.867 22.9577 113.169 26.5742 113.169C30.2266 113.169 33.6462 113.867 36.833 115.264C40.0199 116.624 42.7949 118.504 45.1582 120.903C47.5215 123.267 49.3835 126.042 50.7441 129.229C52.1048 132.415 52.7852 135.835 52.7852 139.487C52.7852 143.104 52.1048 146.506 50.7441 149.692C49.3835 152.843 47.5215 155.601 45.1582 157.964C42.7949 160.327 40.0199 162.207 36.833 163.604C33.6462 164.964 30.2266 165.645 26.5742 165.645C22.9577 165.645 19.556 164.964 16.3691 163.604C13.2181 162.207 10.443 160.327 8.04395 157.964C5.68066 155.601 3.80078 152.843 2.4043 149.692C1.04362 146.506 0.363281 143.104 0.363281 139.487ZM59.5527 138.359V138.252C59.5527 134.779 60.1436 131.52 61.3252 128.477C62.5426 125.433 64.2256 122.783 66.374 120.527C68.5225 118.236 71.0648 116.445 74.001 115.156C76.9372 113.831 80.124 113.169 83.5615 113.169C87.0348 113.169 90.2038 113.831 93.0684 115.156C95.9688 116.445 98.4574 118.236 100.534 120.527C102.611 122.783 104.222 125.433 105.368 128.477C106.514 131.52 107.087 134.779 107.087 138.252V138.682V162.583C107.087 163.299 106.872 163.89 106.442 164.355C106.013 164.785 105.458 165 104.777 165C104.097 165 103.524 164.785 103.059 164.355C102.593 163.89 102.36 163.299 102.36 162.583V138.413C102.36 135.62 101.895 132.988 100.964 130.518C100.069 128.011 98.7796 125.845 97.0967 124.019C95.4495 122.157 93.4801 120.688 91.1885 119.614C88.8968 118.54 86.3545 118.003 83.5615 118.003C80.8044 118.003 78.2441 118.54 75.8809 119.614C73.5534 120.653 71.5303 122.085 69.8115 123.911C68.0928 125.737 66.75 127.904 65.7832 130.41C64.8164 132.881 64.333 135.531 64.333 138.359V162.583C64.333 163.299 64.1182 163.89 63.6885 164.355C63.2588 164.785 62.6859 165 61.9697 165C61.3252 165 60.7523 164.785 60.251 164.355C59.7855 163.89 59.5527 163.299 59.5527 162.583V138.359Z" fill="black"/>
<path d="M141.408 152.163C140.979 151.268 140.764 150.409 140.764 149.585C140.764 148.94 140.907 148.35 141.193 147.812C141.48 147.24 141.838 146.756 142.268 146.362C142.733 145.968 143.234 145.664 143.771 145.449C144.344 145.199 144.899 145.073 145.437 145.073C146.869 145.073 148.337 146.022 149.841 147.92C151.345 150.498 153.439 152.521 156.125 153.989C158.846 155.457 161.944 156.191 165.417 156.191C167.172 156.191 168.89 155.941 170.573 155.439C172.292 154.938 173.814 154.204 175.139 153.237C176.499 152.271 177.591 151.071 178.415 149.639C179.274 148.206 179.704 146.559 179.704 144.697C179.704 142.871 179.274 141.367 178.415 140.186C177.591 138.968 176.499 137.948 175.139 137.124C173.778 136.3 172.238 135.62 170.52 135.083C168.837 134.546 167.136 134.027 165.417 133.525C162.338 132.881 159.419 132.039 156.662 131.001C153.905 129.963 151.488 128.656 149.411 127.08C147.334 125.505 145.687 123.625 144.47 121.44C143.252 119.256 142.644 116.696 142.644 113.76C142.644 110.788 143.27 108.084 144.523 105.649C145.812 103.215 147.495 101.138 149.572 99.4189C151.685 97.7002 154.084 96.3753 156.77 95.4443C159.455 94.5133 162.23 94.0479 165.095 94.0479C167.279 94.0479 169.392 94.2806 171.433 94.7461C173.509 95.1758 175.443 95.8203 177.233 96.6797C179.024 97.5391 180.653 98.6133 182.121 99.9023C183.625 101.191 184.878 102.677 185.881 104.36C186.203 104.969 186.364 105.578 186.364 106.187C186.364 107.368 185.935 108.389 185.075 109.248C184.252 110.107 183.195 110.537 181.906 110.537C180.868 110.537 179.901 110.215 179.006 109.57C177.967 108.496 176.947 107.583 175.944 106.831C174.978 106.079 173.957 105.47 172.883 105.005C171.809 104.504 170.645 104.146 169.392 103.931C168.138 103.68 166.76 103.555 165.256 103.555C163.609 103.555 161.997 103.787 160.422 104.253C158.846 104.683 157.45 105.327 156.232 106.187C155.015 107.046 154.03 108.12 153.278 109.409C152.526 110.662 152.15 112.095 152.15 113.706C152.15 115.461 152.616 116.929 153.547 118.11C154.478 119.256 155.695 120.223 157.199 121.011C158.703 121.763 160.422 122.407 162.355 122.944C164.289 123.446 166.276 123.929 168.317 124.395C170.931 125.146 173.492 126.042 175.998 127.08C178.505 128.083 180.725 129.354 182.658 130.894C184.628 132.433 186.203 134.277 187.385 136.426C188.566 138.574 189.157 141.17 189.157 144.214C189.157 147.329 188.513 150.212 187.224 152.861C185.97 155.475 184.252 157.749 182.067 159.683C179.883 161.58 177.323 163.066 174.387 164.141C171.486 165.179 168.371 165.698 165.041 165.698C162.355 165.698 159.759 165.358 157.253 164.678C154.782 163.962 152.508 162.995 150.432 161.777C148.391 160.56 146.582 159.128 145.007 157.48C143.467 155.833 142.268 154.061 141.408 152.163ZM238.303 138.735V138.521C238.303 136.336 237.963 134.277 237.282 132.344C236.602 130.41 235.635 128.727 234.382 127.295C233.129 125.827 231.607 124.681 229.816 123.857C228.062 123.034 226.092 122.622 223.908 122.622C221.724 122.622 219.611 123.016 217.57 123.804C215.565 124.591 213.775 125.684 212.199 127.08C210.624 128.477 209.353 130.124 208.386 132.021C207.455 133.919 206.989 135.96 206.989 138.145V160.273C206.989 161.598 206.524 162.726 205.593 163.657C204.698 164.552 203.588 165 202.263 165C200.902 165 199.756 164.552 198.825 163.657C197.93 162.726 197.482 161.598 197.482 160.273V99.0967C197.482 98.4163 197.608 97.7897 197.858 97.2168C198.109 96.6081 198.449 96.0889 198.879 95.6592C199.309 95.2295 199.81 94.8893 200.383 94.6387C200.992 94.388 201.618 94.2627 202.263 94.2627C202.907 94.2627 203.516 94.388 204.089 94.6387C204.662 94.8893 205.163 95.2295 205.593 95.6592C206.022 96.0889 206.363 96.6081 206.613 97.2168C206.864 97.7897 206.989 98.4163 206.989 99.0967V121.548C209.138 118.97 211.644 116.929 214.509 115.425C217.409 113.921 220.542 113.169 223.908 113.169C227.382 113.169 230.586 113.831 233.522 115.156C236.459 116.481 238.965 118.289 241.042 120.581C243.155 122.873 244.802 125.558 245.983 128.638C247.165 131.717 247.756 134.993 247.756 138.467V138.735V160.381C247.756 161.742 247.29 162.869 246.359 163.765C245.428 164.624 244.3 165.054 242.976 165.054C241.687 165.054 240.576 164.624 239.646 163.765C238.75 162.869 238.303 161.742 238.303 160.381V138.735ZM265.212 139.434C265.212 141.725 265.642 143.892 266.501 145.933C267.396 147.938 268.596 149.71 270.1 151.25C271.604 152.754 273.358 153.953 275.363 154.849C277.404 155.708 279.589 156.138 281.916 156.138C284.279 156.138 286.464 155.708 288.469 154.849C290.51 153.953 292.282 152.754 293.786 151.25C295.29 149.71 296.472 147.938 297.331 145.933C298.19 143.892 298.62 141.725 298.62 139.434C298.62 137.142 298.19 134.993 297.331 132.988C296.472 130.947 295.29 129.175 293.786 127.671C292.282 126.167 290.51 124.985 288.469 124.126C286.464 123.231 284.279 122.783 281.916 122.783C279.589 122.783 277.404 123.231 275.363 124.126C273.358 124.985 271.604 126.167 270.1 127.671C268.596 129.175 267.396 130.947 266.501 132.988C265.642 134.993 265.212 137.142 265.212 139.434ZM255.705 139.434C255.705 135.817 256.385 132.415 257.746 129.229C259.143 126.042 261.022 123.267 263.386 120.903C265.785 118.504 268.56 116.624 271.711 115.264C274.898 113.867 278.299 113.169 281.916 113.169C285.568 113.169 288.988 113.867 292.175 115.264C295.362 116.624 298.137 118.504 300.5 120.903C302.863 123.267 304.725 126.042 306.086 129.229C307.447 132.415 308.127 135.817 308.127 139.434C308.127 143.05 307.447 146.452 306.086 149.639C304.725 152.826 302.863 155.601 300.5 157.964C298.137 160.327 295.362 162.207 292.175 163.604C288.988 164.964 285.568 165.645 281.916 165.645C278.299 165.645 274.898 164.964 271.711 163.604C268.56 162.207 265.785 160.327 263.386 157.964C261.022 155.601 259.143 152.826 257.746 149.639C256.385 146.452 255.705 143.05 255.705 139.434ZM322.36 139.434C322.36 141.725 322.79 143.892 323.649 145.933C324.545 147.938 325.744 149.71 327.248 151.25C328.752 152.754 330.507 153.953 332.512 154.849C334.553 155.708 336.737 156.138 339.064 156.138C341.428 156.138 343.612 155.708 345.617 154.849C347.658 153.953 349.431 152.754 350.935 151.25C352.438 149.71 353.62 147.938 354.479 145.933C355.339 143.892 355.769 141.725 355.769 139.434C355.769 137.142 355.339 134.993 354.479 132.988C353.62 130.947 352.438 129.175 350.935 127.671C349.431 126.167 347.658 124.985 345.617 124.126C343.612 123.231 341.428 122.783 339.064 122.783C336.737 122.783 334.553 123.231 332.512 124.126C330.507 124.985 328.752 126.167 327.248 127.671C325.744 129.175 324.545 130.947 323.649 132.988C322.79 134.993 322.36 137.142 322.36 139.434ZM312.854 139.434C312.854 135.817 313.534 132.415 314.895 129.229C316.291 126.042 318.171 123.267 320.534 120.903C322.933 118.504 325.708 116.624 328.859 115.264C332.046 113.867 335.448 113.169 339.064 113.169C342.717 113.169 346.136 113.867 349.323 115.264C352.51 116.624 355.285 118.504 357.648 120.903C360.012 123.267 361.874 126.042 363.234 129.229C364.595 132.415 365.275 135.817 365.275 139.434C365.275 143.05 364.595 146.452 363.234 149.639C361.874 152.826 360.012 155.601 357.648 157.964C355.285 160.327 352.51 162.207 349.323 163.604C346.136 164.964 342.717 165.645 339.064 165.645C335.448 165.645 332.046 164.964 328.859 163.604C325.708 162.207 322.933 160.327 320.534 157.964C318.171 155.601 316.291 152.826 314.895 149.639C313.534 146.452 312.854 143.05 312.854 139.434ZM371.882 102.427C371.882 101.782 372.007 101.174 372.258 100.601C372.508 99.9919 372.849 99.4727 373.278 99.043C373.744 98.5775 374.263 98.2194 374.836 97.9688C375.409 97.7181 376.018 97.5928 376.662 97.5928C377.307 97.5928 377.933 97.7181 378.542 97.9688C379.151 98.2194 379.67 98.5596 380.1 98.9893C380.565 99.4189 380.923 99.9382 381.174 100.547C381.46 101.12 381.604 101.746 381.604 102.427V112.954H402.927C404.252 112.954 405.38 113.438 406.311 114.404C407.242 115.335 407.707 116.463 407.707 117.788C407.707 119.077 407.242 120.169 406.311 121.064C405.415 121.924 404.287 122.354 402.927 122.354H381.604V139.863C381.604 142.155 382.033 144.303 382.893 146.309C383.752 148.278 384.916 149.997 386.384 151.465C387.888 152.933 389.642 154.097 391.647 154.956C393.688 155.78 395.873 156.191 398.2 156.191C400.241 156.191 402.157 155.905 403.947 155.332C405.773 154.723 407.438 153.721 408.942 152.324C410.088 151.25 411.288 150.713 412.541 150.713C413.078 150.713 413.597 150.82 414.099 151.035C414.636 151.25 415.101 151.554 415.495 151.948C415.925 152.342 416.247 152.808 416.462 153.345C416.713 153.882 416.838 154.473 416.838 155.117C416.838 155.833 416.677 156.567 416.354 157.319C416.068 158.035 415.656 158.662 415.119 159.199C412.863 161.348 410.303 162.959 407.438 164.033C404.61 165.107 401.53 165.645 398.2 165.645C394.548 165.645 391.128 164.982 387.941 163.657C384.755 162.332 381.962 160.506 379.562 158.179C377.199 155.851 375.319 153.112 373.923 149.961C372.562 146.81 371.882 143.408 371.882 139.756V102.427Z" fill="#FA4C4C"/>
</svg>
